<?xml version="1.0" encoding="utf-8"?>
<!-- Generator: Adobe Illustrator 26.0.3, SVG Export Plug-In . SVG Version: 6.00 Build 0)  -->
<svg version="1.1" id="Capa_1" xmlns="http://www.w3.org/2000/svg" xmlns:xlink="http://www.w3.org/1999/xlink" x="0px" y="0px"
	 viewBox="0 0 320 321" style="enable-background:new 0 0 320 321;" xml:space="preserve">
<style type="text/css">
	.st0{fill:#FFEC5E;}
	.st1{fill:#36173D;}
</style>
<g>
	<path class="st0" d="M76.85,316.64c8.48-22.4,16.97-44.81,25.44-67.22c8.45-22.34,16.87-44.68,25.46-67.41
		c-22.27,0-44.18,0-67.02,0C120.95,122.15,180.56,62.89,240.17,3.64c0.21,0.13,0.43,0.25,0.64,0.38
		c-15.48,44.73-30.96,89.46-46.57,134.56c22.2,0,44.1,0,67.03,0c-61.72,59.93-122.76,119.19-183.79,178.45
		C77.27,316.9,77.06,316.77,76.85,316.64z"/>
	<path class="st1" d="M91.42,261.39c-3,6.77-5.99,13.5-8.98,20.26C23.12,246.76-9.28,167.06,23.2,93.26
		C57.19,16.02,144.29-15.06,216.26,13.95c-1.72,1.64-3.31,3.17-4.92,4.67c-3.76,3.51-7.6,6.92-11.25,10.54
		c-1.59,1.58-3.01,1.84-5.17,1.26c-27.88-7.51-55.39-6.27-82.11,4.78C83.08,47.49,60.88,68.16,46.36,96.95
		c-11.74,23.27-15.79,47.97-12.22,73.63c5.14,37,23.36,66.36,53.76,88.12c0.92,0.66,1.85,1.29,2.77,1.95
		C90.83,260.76,90.96,260.93,91.42,261.39z"/>
	<path class="st1" d="M110.47,295.12c6.09-5.8,12.06-11.58,18.21-17.17c0.71-0.64,2.49-0.53,3.62-0.22
		c9.97,2.75,20.11,4.28,30.44,4.01c37.13-0.97,68.47-15.04,93.33-42.63c24.41-27.09,35.31-59.23,32.4-95.53
		c-3-37.39-19.89-67.7-49.37-90.88c-2.51-1.97-2.99-3.36-1.57-6.2c2.79-5.57,5.16-11.34,7.72-17.06
		c54.95,35.05,87.35,115.48,51.22,189.72C257.49,299.3,169.18,318.33,110.47,295.12z"/>
	<g>
		<g>
			<path class="st1" d="M81.6,204.52V96.69h20.32v107.83H81.6z M89.01,116.27V96.69h63.41v19.58H89.01z M89.01,161.73v-19.58h55.25
				v19.58H89.01z"/>
			<path class="st1" d="M165.6,204.52V96.69h20.32v107.83H165.6z M180.43,188.8l-2.6-26.4l43.24-65.71h25.58L180.43,188.8z
				 M227.08,204.52l-31.3-54.58l17.5-11.05l37.9,65.63H227.08z"/>
		</g>
	</g>
</g>
</svg>
